<?xml version="1.0" encoding="iso-8859-1"?>
<!-- Generator: Adobe Illustrator 18.0.0, SVG Export Plug-In . SVG Version: 6.00 Build 0)  -->
<!DOCTYPE svg PUBLIC "-//W3C//DTD SVG 1.1//EN" "http://www.w3.org/Graphics/SVG/1.1/DTD/svg11.dtd">
<svg xmlns="http://www.w3.org/2000/svg" xmlns:xlink="http://www.w3.org/1999/xlink" version="1.1" id="Capa_1" x="0px" y="0px" viewBox="0 0 483.828 483.828" style="enable-background:new 0 0 483.828 483.828;" xml:space="preserve" width="512px" height="512px">
<g>
	<path d="M317.63,296.543v-109.26c0-11.48-9.339-20.819-20.818-20.819H187.551c-11.479,0-20.819,9.339-20.819,20.819v109.26   c0,11.48,9.34,20.819,20.819,20.819h109.261C308.291,317.363,317.63,308.023,317.63,296.543z M175.232,296.543v-82.498h63.13   c2.348,0,4.25-1.903,4.25-4.25c0-2.347-1.902-4.25-4.25-4.25h-63.13v-18.262c0-6.793,5.526-12.319,12.319-12.319h109.261   c6.792,0,12.318,5.526,12.318,12.319v80.855h-64.509c-2.348,0-4.25,1.903-4.25,4.25s1.902,4.25,4.25,4.25h64.509v19.905   c0,6.793-5.526,12.319-12.318,12.319H187.551C180.758,308.863,175.232,303.336,175.232,296.543z" fill="#21be2b"/>
	<path d="M469.667,221.126c7.809,0,14.161-6.353,14.161-14.162c0-7.808-6.353-14.161-14.161-14.161h-57.365v-41.577h57.365   c7.809,0,14.161-6.353,14.161-14.161c0-7.808-6.353-14.161-14.161-14.161h-57.365v-8.261c0-23.627-19.223-42.85-42.851-42.85   h-8.528V14.161C360.923,6.353,354.57,0,346.762,0c-7.808,0-14.16,6.353-14.16,14.161v57.632h-41.577V14.161   C291.025,6.353,284.672,0,276.863,0c-7.809,0-14.161,6.353-14.161,14.161v57.632h-41.577V14.161C221.125,6.353,214.773,0,206.964,0   c-7.808,0-14.16,6.353-14.16,14.161v57.632h-41.577V14.161C151.227,6.353,144.873,0,137.064,0s-14.161,6.353-14.161,14.161v57.632   h-7.993c-23.627,0-42.85,19.223-42.85,42.85v8.261h-57.9c-7.808,0-14.16,6.353-14.16,14.161c0,7.809,6.353,14.161,14.16,14.161   h57.9v41.577h-57.9c-7.808,0-14.16,6.353-14.16,14.161c0,7.809,6.353,14.161,14.16,14.161h57.9v41.577h-57.9   c-7.808,0-14.16,6.352-14.16,14.161c0,7.808,6.353,14.161,14.16,14.161h57.9v41.577h-57.9c-7.808,0-14.16,6.353-14.16,14.161   c0,7.808,6.353,14.161,14.16,14.161h57.9v8.261c0,23.628,19.223,42.851,42.85,42.851h7.993v57.632   c0,7.809,6.353,14.161,14.161,14.161s14.162-6.353,14.162-14.161v-57.632h41.577v57.632c0,7.809,6.353,14.161,14.16,14.161   c7.809,0,14.161-6.353,14.161-14.161v-57.632h41.577v57.632c0,7.809,6.352,14.161,14.161,14.161   c7.809,0,14.161-6.353,14.161-14.161v-57.632h41.577v57.632c0,7.809,6.353,14.161,14.16,14.161c7.809,0,14.161-6.353,14.161-14.161   v-57.632h8.528c23.628,0,42.851-19.223,42.851-42.851v-8.261h57.365c7.809,0,14.161-6.353,14.161-14.161   c0-7.809-6.353-14.161-14.161-14.161h-57.365v-41.577h57.365c7.809,0,14.161-6.353,14.161-14.161   c0-7.809-6.353-14.161-14.161-14.161h-57.365v-41.577H469.667z M469.667,201.303c3.121,0,5.661,2.54,5.661,5.661   c0,3.122-2.54,5.662-5.661,5.662h-57.365v-11.322H469.667z M469.667,131.404c3.121,0,5.661,2.54,5.661,5.661   c0,3.122-2.54,5.661-5.661,5.661h-57.365v-11.322H469.667z M341.102,14.161c0-3.122,2.539-5.661,5.66-5.661   c3.121,0,5.661,2.54,5.661,5.661v57.632h-11.321V14.161z M271.202,14.161c0-3.122,2.54-5.661,5.661-5.661   c3.121,0,5.661,2.54,5.661,5.661v57.632h-11.322V14.161z M201.304,14.161c0-3.122,2.539-5.661,5.66-5.661   c3.121,0,5.661,2.54,5.661,5.661v57.632h-11.321V14.161z M131.403,14.161c0-3.122,2.54-5.661,5.661-5.661   c3.122,0,5.662,2.54,5.662,5.661v57.632h-11.323V14.161z M14.16,142.726c-3.121,0-5.66-2.54-5.66-5.661   c0-3.121,2.539-5.661,5.66-5.661h57.9v11.322H14.16z M14.16,212.625c-3.121,0-5.66-2.54-5.66-5.661c0-3.121,2.539-5.661,5.66-5.661   h57.9v11.322H14.16z M14.16,282.524c-3.121,0-5.66-2.54-5.66-5.661c0-3.122,2.539-5.661,5.66-5.661h57.9v11.322H14.16z    M14.16,352.423c-3.121,0-5.66-2.54-5.66-5.661c0-3.122,2.539-5.661,5.66-5.661h57.9v11.322H14.16z M142.727,469.667   c0,3.122-2.54,5.661-5.662,5.661c-3.121,0-5.661-2.54-5.661-5.661v-57.632h11.323V469.667z M212.625,469.667   c0,3.122-2.54,5.661-5.661,5.661c-3.121,0-5.66-2.54-5.66-5.661v-57.632h11.321V469.667z M282.525,469.667   c0,3.122-2.54,5.661-5.661,5.661c-3.121,0-5.661-2.54-5.661-5.661v-57.632h11.322V469.667z M352.423,469.667   c0,3.122-2.54,5.661-5.661,5.661c-3.121,0-5.66-2.54-5.66-5.661v-57.632h11.321V469.667z M369.451,403.535H114.91   c-18.94,0-34.35-15.41-34.35-34.351V114.643c0-3.385,0.5-6.653,1.416-9.745H283.74c2.348,0,4.25-1.903,4.25-4.25   c0-2.347-1.902-4.25-4.25-4.25H85.827c6.084-9.665,16.843-16.105,29.083-16.105h254.541c18.941,0,34.351,15.409,34.351,34.35   v254.541c0,1.284-0.077,2.55-0.215,3.798H205.5c-2.348,0-4.25,1.903-4.25,4.25c0,2.347,1.902,4.25,4.25,4.25h196.017   C396.56,394.365,384.06,403.535,369.451,403.535z M469.667,341.101c3.121,0,5.661,2.54,5.661,5.661c0,3.122-2.54,5.661-5.661,5.661   h-57.365v-11.322H469.667z M469.667,271.202c3.121,0,5.661,2.539,5.661,5.661c0,3.122-2.54,5.661-5.661,5.661h-57.365v-11.322   H469.667z" fill="#21be2b"/>
	<path d="M264.963,214.046h25.038c2.348,0,4.25-1.903,4.25-4.25c0-2.347-1.902-4.25-4.25-4.25h-25.038   c-2.348,0-4.25,1.903-4.25,4.25C260.713,212.143,262.615,214.046,264.963,214.046z" fill="#21be2b"/>
	<path d="M307.214,104.898h29.732c2.348,0,4.25-1.903,4.25-4.25c0-2.347-1.902-4.25-4.25-4.25h-29.732   c-2.348,0-4.25,1.903-4.25,4.25C302.964,102.996,304.866,104.898,307.214,104.898z" fill="#21be2b"/>
</g>
<g>
</g>
<g>
</g>
<g>
</g>
<g>
</g>
<g>
</g>
<g>
</g>
<g>
</g>
<g>
</g>
<g>
</g>
<g>
</g>
<g>
</g>
<g>
</g>
<g>
</g>
<g>
</g>
<g>
</g>
</svg>
